# xmcd CD database file
#
# Track frame offsets:
#	150
#	11139
#	30579
#	44052
#	57255
#	67245
#	78288
#	88629
#	102345
#	117168
#	136311
#	151161
#	163581
#	177297
#	187368
#	200274
#	215637
#
# Disc length: 3085 seconds
#
# Revision: 1
# Processed by: cddbd v1.5.2PL0 Copyright (c) Steve Scherf et al.
# Submitted via: CDex 1.51
#
DISCID=f30c0b11
DTITLE=Pedro Bento and Zé da Estrada - Sete Palavras
DYEAR=2009
DGENRE=Sertanejo
TTITLE0=Mala no Baile
TTITLE1=Sete Palvras (Últimas Palavras)
TTITLE2=Dodói
TTITLE3=O Velho Dançou
TTITLE4=Prega Fogo
TTITLE5=Viola Minha Viola
TTITLE6=Duas de Vinte
TTITLE7=Incendiando o Pavio
TTITLE8=Barretos Portal do Paraíso
TTITLE9=Pantera do Asfalto
TTITLE10=Preto Velho Sebastião
TTITLE11=Videotape da Lembrança
TTITLE12=Saudações a Minas
TTITLE13=Desafio da Cana Verde
TTITLE14=Os Grandes Nomes da História
TTITLE15=Minha Vida Minha Moda
TTITLE16=Porto da Monções
EXTD=YEAR: 2009
EXTT0=
EXTT1=
EXTT2=
EXTT3=
EXTT4=
EXTT5=
EXTT6=
EXTT7=
EXTT8=
EXTT9=
EXTT10=
EXTT11=
EXTT12=
EXTT13=
EXTT14=
EXTT15=
EXTT16=
PLAYORDER=
